<?xml version="1.0" encoding="utf-8"?>
<!-- Generator: Adobe Illustrator 15.0.0, SVG Export Plug-In . SVG Version: 6.00 Build 0)  -->
<!DOCTYPE svg PUBLIC "-//W3C//DTD SVG 1.1//EN" "http://www.w3.org/Graphics/SVG/1.1/DTD/svg11.dtd">
<svg version="1.1" id="Layer_1" xmlns="http://www.w3.org/2000/svg" xmlns:xlink="http://www.w3.org/1999/xlink" x="0px" y="0px"
	 width="511px" height="511px" viewBox="0 0 511 511" enable-background="new 0 0 511 511" xml:space="preserve">
<path fill="#031B28" d="M502.914,127.896c4.184,0,7.567-3.388,7.567-7.567V61.054c0-20.534-16.701-37.236-37.231-37.236h-44.483
	v-1.586c0-12.257-9.973-22.23-22.23-22.23h-75.598c-12.258,0-22.23,9.973-22.23,22.23v1.586h-55.582
	c-20.534,0-37.236,16.706-37.236,37.236v72.534H37.356c-20.046,0-36.358,16.312-36.358,36.358v304.697
	c0,20.047,16.312,36.358,36.358,36.358h25.688c4.18,0,7.567-3.388,7.567-7.567c0-4.179-3.388-7.567-7.567-7.567H37.356
	c-11.704,0-21.224-9.521-21.224-21.224V169.947c0-11.704,9.521-21.224,21.224-21.224H215.89v15.13H38.83
	c-4.179,0-7.567,3.388-7.567,7.567v74.838c0,4.179,3.388,7.567,7.567,7.567h177.06v16.768H38.83c-4.179,0-7.567,3.388-7.567,7.566
	v195.824c0,4.18,3.388,7.567,7.567,7.567h203.415c4.179,0,7.563-3.388,7.563-7.567V366.955c1.095,0.098,2.199,0.156,3.318,0.156
	h11.816v107.532c0,11.703-9.521,21.224-21.228,21.224H88.265c-4.179,0-7.563,3.389-7.563,7.567c0,4.18,3.384,7.567,7.563,7.567
	h155.45c20.051,0,36.363-16.312,36.363-36.358V367.111H473.25c20.53,0,37.231-16.701,37.231-37.231V145.553
	c0-4.18-3.384-7.567-7.567-7.567c-4.179,0-7.563,3.388-7.563,7.567V329.88c0,12.183-9.914,22.101-22.101,22.101H253.126
	c-12.188,0-22.102-9.918-22.102-22.101V61.054c0-12.187,9.914-22.101,22.102-22.101h55.582v15.134h-54.986
	c-4.179,0-7.563,3.388-7.563,7.567v267.625c0,4.18,3.384,7.567,7.563,7.567h218.927c4.179,0,7.567-3.388,7.567-7.567V61.655
	c0-4.179-3.389-7.567-7.567-7.567h-43.883V38.953h44.483c12.187,0,22.101,9.914,22.101,22.101v59.275
	C495.351,124.508,498.735,127.896,502.914,127.896z M46.397,238.695v-59.707H215.89v59.707H46.397z M216.682,337.514h-33.263
	v-51.785h32.472v44.151C215.89,332.496,216.167,335.049,216.682,337.514z M112.779,466.417v-51.785h55.505v51.785H112.779z
	 M112.779,399.501v-46.853h55.505v46.853H112.779z M46.397,352.648h51.251v46.853H46.397V352.648z M112.779,337.514v-51.785h55.505
	v51.785H112.779z M97.649,285.729v51.785H46.397v-51.785H97.649z M46.397,414.632h51.251v51.785H46.397V414.632z M183.418,466.417
	v-51.785h51.259v51.785H183.418z M234.677,399.501h-51.259v-46.853h40.276c2.99,3.859,6.722,7.11,10.979,9.551v37.302H234.677z
	 M323.843,22.232c0-3.914,3.182-7.096,7.096-7.096h75.598c3.915,0,7.096,3.182,7.096,7.096v1.586h-89.789V22.232z M465.082,69.218
	v252.495H261.289V69.218h47.419v0.635c0,12.257,9.973,22.23,22.23,22.23h75.598c12.258,0,22.23-9.973,22.23-22.23v-0.635H465.082z
	 M323.843,69.218h89.789v0.635c0,3.91-3.181,7.096-7.096,7.096h-75.598c-3.914,0-7.096-3.186-7.096-7.096V69.218z M413.632,54.087
	h-89.789V38.953h89.789V54.087z"/>
<path d="M348.357,107.912c-3.763-1.829-8.288-0.261-10.113,3.497l-28.955,59.559l-13.115-23.606
	c-2.027-3.653-6.635-4.971-10.288-2.939s-4.971,6.636-2.939,10.289l20.175,36.319c1.338,2.406,3.876,3.891,6.616,3.891h0.207
	c2.822-0.078,5.364-1.719,6.601-4.257l35.31-72.639C353.679,114.267,352.115,109.74,348.357,107.912z"/>
<path d="M439.359,162.2h-66.585c-4.184,0-7.567,3.388-7.567,7.567c0,4.179,3.384,7.567,7.567,7.567h66.585
	c4.179,0,7.566-3.388,7.566-7.567C446.926,165.588,443.538,162.2,439.359,162.2z"/>
<path d="M365.207,137.483c0,4.179,3.384,7.567,7.567,7.567h66.585c4.179,0,7.566-3.388,7.566-7.567s-3.388-7.567-7.566-7.567
	h-66.585C368.591,129.916,365.207,133.304,365.207,137.483z"/>
<path d="M348.357,203.214c-3.763-1.829-8.288-0.257-10.113,3.497l-28.955,59.563l-13.115-23.609
	c-2.027-3.653-6.635-4.967-10.288-2.94c-3.653,2.031-4.971,6.64-2.939,10.289l20.175,36.319c1.338,2.41,3.876,3.895,6.616,3.895
	c0.07,0,0.137,0,0.207-0.004c2.822-0.078,5.364-1.715,6.601-4.253l35.31-72.643C353.679,209.568,352.115,205.042,348.357,203.214z"
	/>
<path d="M439.359,257.502h-66.585c-4.184,0-7.567,3.388-7.567,7.567c0,4.179,3.384,7.567,7.567,7.567h66.585
	c4.179,0,7.566-3.389,7.566-7.567C446.926,260.89,443.538,257.502,439.359,257.502z"/>
<path d="M439.359,225.217h-66.585c-4.184,0-7.567,3.388-7.567,7.567s3.384,7.567,7.567,7.567h66.585
	c4.179,0,7.566-3.388,7.566-7.567S443.538,225.217,439.359,225.217z"/>
</svg>
