<?xml version="1.0" encoding="utf-8"?>
<!-- Generator: Adobe Illustrator 15.0.0, SVG Export Plug-In . SVG Version: 6.00 Build 0)  -->
<!DOCTYPE svg PUBLIC "-//W3C//DTD SVG 1.1//EN" "http://www.w3.org/Graphics/SVG/1.1/DTD/svg11.dtd">
<svg version="1.1" id="Layer_1" xmlns="http://www.w3.org/2000/svg" xmlns:xlink="http://www.w3.org/1999/xlink" x="0px" y="0px"
	 width="69.012px" height="106.559px" viewBox="0 0 69.012 106.559" enable-background="new 0 0 69.012 106.559"
	 xml:space="preserve">
<path fill="#265A6F" d="M69.012,72.711c0,18.693-15.449,33.848-34.506,33.848C16.127,106.559,0,91.404,0,72.711
	s15.449-33.848,34.506-33.848S69.012,54.018,69.012,72.711z"/>
<path fill="#265A6F" d="M25.629,39.996l-0.108-19.819c0,0-3.611,0.544-2.11-3.735h20.502c0,0,1.444,0.511,1.246,2.098
	s-1.487,1.686-2.776,1.735l-0.082,19.457C42.301,39.731,34.207,44.944,25.629,39.996z"/>
<path fill="#EAEAEA" d="M4.404,73.783h8.118c0,0,0.198-4.979,4.257-4.979s4.752,4.877,4.851,4.979
	c0.099,0.102,43.935-0.286,43.935-0.286s-0.871,27.517-30.472,29.346C35.094,102.843,5.948,102.05,4.404,73.783z"/>
<ellipse fill="#265A6F" cx="22.274" cy="88.587" rx="2.842" ry="2.756"/>
<ellipse fill="#265A6F" cx="34.506" cy="79.39" rx="2.251" ry="2.304"/>
<ellipse fill="#265A6F" cx="45.541" cy="81.693" rx="4.822" ry="4.935"/>
<ellipse fill="#EAEAEA" cx="39.26" cy="57.75" rx="2.181" ry="1.934"/>
<ellipse fill="#EAEAEA" cx="44.937" cy="52.97" rx="4.218" ry="3.739"/>
<ellipse fill="#EAEAEA" cx="32.246" cy="42.759" rx="2.652" ry="2.351"/>
<circle fill="#EAEAEA" cx="37.195" cy="36.261" r="1.544"/>
<ellipse fill="#EAEAEA" cx="34.168" cy="33.185" rx="1.324" ry="1.415"/>
<ellipse fill="#EAEAEA" cx="36.55" cy="24.125" rx="1.324" ry="1.414"/>
<ellipse fill="#265A6F" cx="32.535" cy="8.667" rx="2.034" ry="2.181"/>
<ellipse fill="#265A6F" cx="35.435" cy="3.321" rx="1.323" ry="1.338"/>
<ellipse fill="#265A6F" cx="31.494" cy="0.694" rx="0.761" ry="0.694"/>
</svg>
