<?xml version="1.0" encoding="utf-8"?>
<!-- Generator: Adobe Illustrator 15.0.0, SVG Export Plug-In . SVG Version: 6.00 Build 0)  -->
<!DOCTYPE svg PUBLIC "-//W3C//DTD SVG 1.1//EN" "http://www.w3.org/Graphics/SVG/1.1/DTD/svg11.dtd">
<svg version="1.1" id="Layer_1" xmlns="http://www.w3.org/2000/svg" xmlns:xlink="http://www.w3.org/1999/xlink" x="0px" y="0px"
	 width="69.012px" height="106.559px" viewBox="0 0 69.012 106.559" enable-background="new 0 0 69.012 106.559"
	 xml:space="preserve">
<ellipse fill="#265A6F" cx="22.274" cy="88.587" rx="2.843" ry="2.756"/>
<ellipse fill="#265A6F" cx="34.506" cy="79.39" rx="2.251" ry="2.304"/>
<ellipse fill="#265A6F" cx="45.541" cy="81.693" rx="4.821" ry="4.935"/>
<path fill="#265A6F" d="M34.506,38.863C15.449,38.863,0,54.018,0,72.711c0,18.692,16.127,33.848,34.506,33.848
	c19.057,0,34.506-15.155,34.506-33.848C69.012,54.018,53.563,38.863,34.506,38.863z M46.437,48.981c2.33,0,4.218,1.674,4.218,3.739
	s-1.888,3.739-4.218,3.739c-2.329,0-4.218-1.674-4.218-3.739S44.108,48.981,46.437,48.981z M39.26,55.816
	c1.204,0,2.181,0.866,2.181,1.935s-0.977,1.934-2.181,1.934s-2.181-0.865-2.181-1.934S38.056,55.816,39.26,55.816z M31.996,41.908
	c1.464,0,2.651,1.052,2.651,2.351s-1.188,2.351-2.651,2.351c-1.465,0-2.652-1.052-2.652-2.351S30.531,41.908,31.996,41.908z
	 M35.093,102.843c0.001,0-29.145-0.793-30.689-29.06h8.118c0,0,0.198-4.979,4.257-4.979c4.06,0,4.753,4.877,4.852,4.979
	c0.099,0.102,43.935-0.286,43.935-0.286S64.694,101.014,35.093,102.843z"/>
<path fill="#265A6F" d="M43.913,16.442H23.411c-1.501,4.279,2.109,3.735,2.109,3.735l0.108,19.819
	c8.877,3.2,16.672-0.266,16.672-0.265l0.082-19.457c1.289-0.049,2.578-0.147,2.776-1.734C45.357,16.953,43.913,16.442,43.913,16.442
	z M34.168,34.6c-0.731,0-1.324-0.634-1.324-1.415s0.593-1.415,1.324-1.415s1.324,0.634,1.324,1.415S34.9,34.6,34.168,34.6z
	 M35.226,24.125c0-0.781,0.593-1.414,1.324-1.414s1.324,0.633,1.324,1.414c0,0.78-0.593,1.414-1.324,1.414
	S35.226,24.906,35.226,24.125z M37.195,37.805c-0.853,0-1.544-0.691-1.544-1.544s0.691-1.544,1.544-1.544
	c0.854,0,1.545,0.691,1.545,1.544S38.048,37.805,37.195,37.805z"/>
<ellipse fill="#265A6F" cx="32.535" cy="8.667" rx="2.033" ry="2.181"/>
<ellipse fill="#265A6F" cx="35.435" cy="3.321" rx="1.323" ry="1.338"/>
<ellipse fill="#265A6F" cx="31.494" cy="0.694" rx="0.761" ry="0.694"/>
</svg>
