<?xml version="1.0" encoding="utf-8"?>
<!-- Generator: Adobe Illustrator 15.0.0, SVG Export Plug-In . SVG Version: 6.00 Build 0)  -->
<!DOCTYPE svg PUBLIC "-//W3C//DTD SVG 1.1//EN" "http://www.w3.org/Graphics/SVG/1.1/DTD/svg11.dtd">
<svg version="1.1" id="Layer_1" xmlns="http://www.w3.org/2000/svg" xmlns:xlink="http://www.w3.org/1999/xlink" x="0px" y="0px"
	 width="152.611px" height="20.177px" viewBox="0 0 152.611 20.177" enable-background="new 0 0 152.611 20.177"
	 xml:space="preserve">
<g>
	<path fill="#0A1C28" d="M0.867,20.177v-1.568l1.989-0.35V3.978L0.867,3.629V2.048h13.646v4.357h-2.063l-0.195-2.428H5.262v5.865
		h6.799v1.93H5.262v6.486h7.141l0.195-2.428h2.051v4.346H0.867z"/>
	<path fill="#0A1C28" d="M17.324,2.334V0.753h4.395v17.506l1.99,0.35v1.568h-6.385v-1.568l1.99-0.35V2.683L17.324,2.334z"/>
	<path fill="#0A1C28" d="M26.152,18.608l1.99-0.35V8.635l-1.99-0.349V6.704h4.395v11.555l1.99,0.35v1.568h-6.385V18.608z
		 M30.547,3.256h-2.404V0.753h2.404V3.256z"/>
	<path fill="#0A1C28" d="M34.663,18.608l1.416-0.287l3.894-4.955l-3.771-4.794l-1.416-0.286V6.704h5.176v1.582l-1.196,0.149
		l2.466,3.237l2.479-3.25l-1.185-0.137V6.704h5.212v1.582L46.32,8.572l-3.771,4.794l3.882,4.955l1.429,0.287v1.568h-5.176v-1.568
		l1.172-0.138l-2.588-3.387l-2.588,3.387l1.184,0.138v1.568h-5.2V18.608z"/>
	<path fill="#0A1C28" d="M50.168,18.608l1.99-0.35V8.635l-1.99-0.349V6.704h4.395v11.555l1.99,0.35v1.568h-6.385V18.608z
		 M54.563,3.256h-2.404V0.753h2.404V3.256z"/>
	<path fill="#0A1C28" d="M59.008,8.286V6.704h4.139l0.232,1.955c0.374-0.688,0.836-1.229,1.385-1.618
		c0.55-0.39,1.178-0.585,1.887-0.585c0.187,0,0.38,0.014,0.579,0.043s0.353,0.061,0.458,0.094L67.37,8.871l-1.367-0.075
		c-0.635,0-1.168,0.152-1.599,0.455c-0.432,0.303-0.766,0.729-1.002,1.276v7.731l1.99,0.35v1.568h-6.385v-1.568l1.99-0.35V8.635
		L59.008,8.286z"/>
	<path fill="#0A1C28" d="M75.99,13.055c0-1.992,0.529-3.634,1.587-4.925s2.494-1.936,4.309-1.936c1.823,0,3.266,0.643,4.328,1.93
		c1.062,1.287,1.593,2.93,1.593,4.931v0.273c0,2.009-0.529,3.653-1.587,4.931c-1.058,1.279-2.494,1.918-4.309,1.918
		c-1.832,0-3.276-0.642-4.334-1.924c-1.058-1.283-1.587-2.924-1.587-4.925V13.055z M78.396,13.328c0,1.429,0.294,2.606,0.885,3.536
		c0.59,0.93,1.467,1.395,2.631,1.395c1.139,0,2.006-0.465,2.6-1.395s0.891-2.107,0.891-3.536v-0.273
		c0-1.411-0.297-2.586-0.891-3.524c-0.594-0.938-1.469-1.406-2.625-1.406c-1.155,0-2.025,0.469-2.611,1.406
		c-0.586,0.938-0.879,2.113-0.879,3.524V13.328z"/>
	<path fill="#0A1C28" d="M89.73,8.522V6.704h2.063V4.999c0-1.436,0.368-2.547,1.105-3.331c0.736-0.784,1.764-1.177,3.082-1.177
		c0.276,0,0.556,0.023,0.836,0.068c0.281,0.046,0.592,0.11,0.934,0.193L97.457,2.62c-0.146-0.033-0.323-0.062-0.53-0.087
		c-0.208-0.024-0.421-0.037-0.642-0.037c-0.707,0-1.232,0.214-1.574,0.642s-0.513,1.048-0.513,1.861v1.705h2.759v1.818h-2.759v9.736
		l1.989,0.35v1.568h-6.384v-1.568l1.989-0.35V8.522H89.73z"/>
	<path fill="#275B70" d="M106.094,20.177v-1.568l1.989-0.35V3.978l-1.989-0.349V2.048h1.989h2.405h1.989v1.581l-1.989,0.349v14.281
		h6.176l0.184-2.079h2.051v3.997H106.094z"/>
	<path fill="#275B70" d="M121.574,18.608l1.989-0.35V8.635l-1.989-0.349V6.704h4.395v11.555l1.989,0.35v1.568h-6.384V18.608z
		 M125.969,3.256h-2.405V0.753h2.405V3.256z"/>
	<path fill="#275B70" d="M130.183,8.522V6.704h2.063V4.999c0-1.436,0.367-2.547,1.104-3.331c0.736-0.784,1.764-1.177,3.082-1.177
		c0.276,0,0.556,0.023,0.836,0.068c0.281,0.046,0.593,0.11,0.935,0.193L137.91,2.62c-0.146-0.033-0.324-0.062-0.531-0.087
		c-0.208-0.024-0.422-0.037-0.641-0.037c-0.709,0-1.233,0.214-1.575,0.642s-0.513,1.048-0.513,1.861v1.705h2.759v1.818h-2.759v9.736
		l1.99,0.35v1.568h-6.385v-1.568l1.99-0.35V8.522H130.183z"/>
	<path fill="#275B70" d="M145.664,20.438c-1.84,0-3.303-0.625-4.389-1.874c-1.087-1.249-1.63-2.87-1.63-4.862v-0.548
		c0-1.917,0.56-3.513,1.679-4.788c1.118-1.273,2.443-1.91,3.973-1.91c1.774,0,3.119,0.547,4.035,1.643
		c0.915,1.096,1.373,2.557,1.373,4.383v1.532h-8.569l-0.036,0.062c0.023,1.295,0.346,2.359,0.964,3.194
		c0.618,0.834,1.485,1.251,2.601,1.251c0.813,0,1.527-0.118,2.142-0.354c0.614-0.237,1.146-0.563,1.593-0.978l0.94,1.594
		c-0.472,0.465-1.097,0.857-1.874,1.177S146.754,20.438,145.664,20.438z M145.297,8.386c-0.805,0-1.493,0.347-2.063,1.039
		c-0.569,0.693-0.92,1.563-1.05,2.609l0.024,0.062h6.092v-0.323c0-0.963-0.253-1.769-0.758-2.416
		C147.039,8.709,146.29,8.386,145.297,8.386z"/>
</g>
</svg>
